<svg xmlns="http://www.w3.org/2000/svg" width="146" height="29" viewBox="0 0 146 29"><g fill="none" fill-rule="evenodd"><g fill="#FFF" transform="translate(2.375 5.973)"><path d="M8.777 0.726L8.777 0.726 8.659 0.846z"/><path d="M4.885 4.599l1.124-1.13s0-.04-.04-.04L4.965 4.437a.306.306 0 0 0-.08.162z"/><path d="M8.659.766L5.969 3.43s0 .04.04.04L8.659.766z"/><path d="M2.841 7.894L2.841 7.894 2.722 8.013z"/><path d="M2.722 7.934l-2.69 2.663s0 .04.04.04l2.65-2.703z"/></g><path fill="#00BE59" d="M16.197 11.415a.526.526 0 0 0 .747 0c.556-.56.935-.962 1.27-1.315.259-.275.49-.52.756-.787a.535.535 0 0 0-.073-.814C16.469 6.81 14.015 1.993 13.32.556a.869.869 0 0 0-1.483-.144C10.293 2.488 4.892 9.482.254 12.342a.533.533 0 0 0-.098.83c.962.97 2.977 3.516 2.997 3.542.1.126.25.2.41.2h.003a.526.526 0 0 0 .409-.195l8.492-10.486c.593 1.125 1.87 3.306 3.73 5.182" opacity=".9"/><path fill="#009D63" d="M22.24 12.283a.526.526 0 0 0-.822-.005l-8.492 10.485c-.592-1.124-1.87-3.306-3.73-5.181a.525.525 0 0 0-.747 0c-.557.561-.937.964-1.272 1.318-.258.273-.489.517-.753.784a.535.535 0 0 0 .073.814c2.428 1.687 4.88 6.505 5.575 7.942a.87.87 0 0 0 1.483.144c1.545-2.075 6.945-9.07 11.585-11.929a.532.532 0 0 0 .098-.83c-.963-.97-2.977-3.517-2.998-3.542" opacity=".7"/><path fill="#4A4A4A" d="M75.73 16.86c0 .67-.103 1.283-.307 1.822-.203.537-.48.994-.826 1.36a3.738 3.738 0 0 1-1.218.856 3.794 3.794 0 0 1-2.98 0 3.75 3.75 0 0 1-1.244-.87 4.24 4.24 0 0 1-.854-1.375 4.872 4.872 0 0 1-.319-1.793v-.054c0-.653.108-1.251.32-1.78.211-.53.499-.993.854-1.376a3.663 3.663 0 0 1 1.242-.882 3.752 3.752 0 0 1 1.498-.307 3.653 3.653 0 0 1 2.7 1.175 4.2 4.2 0 0 1 .827 1.374c.204.539.307 1.143.307 1.796v.054zm1.511-5.587a6.374 6.374 0 0 0-2.133-1.451 6.456 6.456 0 0 0-2.47-.493c-1.158 0-2.142.265-2.924.788a7.213 7.213 0 0 0-1.653 1.52V4.633h-3.53v19.41h3.068a.464.464 0 0 0 .462-.466v-1.423c.453.524.999.996 1.627 1.409.783.513 1.775.774 2.95.774.846 0 1.682-.166 2.483-.493a6.339 6.339 0 0 0 2.147-1.452c.62-.634 1.123-1.425 1.491-2.349.368-.923.555-1.994.555-3.183v-.054c0-1.19-.191-2.262-.568-3.185-.377-.922-.883-1.712-1.505-2.348zm9.598-1.002a6.16 6.16 0 0 0-1.615 1.96V10.09a.464.464 0 0 0-.463-.466h-3.068v14.42h3.53v-5.529c0-.921.114-1.73.336-2.403.22-.667.539-1.23.945-1.675a3.905 3.905 0 0 1 1.449-.999 5.06 5.06 0 0 1 1.873-.335h.349v-3.74l-.157-.006c-1.27-.057-2.34.253-3.18.915m15.914 6.642c0 .583-.095 1.143-.281 1.665a3.95 3.95 0 0 1-2.099 2.308c-.497.229-1.067.345-1.692.345a3.89 3.89 0 0 1-2.938-1.294 4.437 4.437 0 0 1-.855-1.402 4.655 4.655 0 0 1-.306-1.675v-.054c0-.6.094-1.17.281-1.692a3.93 3.93 0 0 1 .813-1.358 4.057 4.057 0 0 1 1.286-.923 3.952 3.952 0 0 1 1.665-.345c.609 0 1.17.116 1.667.345.498.23.936.546 1.299.937.363.392.65.859.853 1.388.204.53.307 1.102.307 1.702v.053zm1.378-5.387a7.437 7.437 0 0 0-2.409-1.61c-.926-.39-1.95-.587-3.041-.587-1.093 0-2.117.202-3.043.6a7.6 7.6 0 0 0-2.408 1.623 7.603 7.603 0 0 0-1.597 2.387 7.395 7.395 0 0 0-.582 2.92v.054a7.48 7.48 0 0 0 .568 2.893c.378.906.911 1.705 1.585 2.375a7.527 7.527 0 0 0 2.408 1.596c.926.389 1.94.586 3.015.586 1.093 0 2.121-.201 3.056-.6a7.56 7.56 0 0 0 2.422-1.623 7.603 7.603 0 0 0 1.596-2.387c.387-.906.583-1.88.583-2.893v-.054c0-1.031-.191-2.01-.569-2.907a7.463 7.463 0 0 0-1.584-2.373zm41.675-2.17c-1.271-.057-2.34.253-3.179.915a6.156 6.156 0 0 0-1.615 1.96V10.09a.464.464 0 0 0-.462-.466h-3.07v14.42h3.532v-5.529c0-.921.113-1.73.335-2.403.22-.667.539-1.23.945-1.675a3.906 3.906 0 0 1 1.449-.999 5.06 5.06 0 0 1 1.873-.335h.349v-3.74l-.157-.006zm-96.53 6.325c.155-.979.527-1.787 1.108-2.404.61-.648 1.393-.976 2.33-.976.504 0 .958.09 1.35.266.39.176.733.427 1.017.746.285.323.516.706.684 1.138.15.385.255.798.313 1.23h-6.802zm8.61-4.022a6.227 6.227 0 0 0-2.149-1.7c-.857-.418-1.866-.63-2.997-.63-1.024 0-1.973.198-2.821.589-.846.39-1.59.933-2.21 1.613a7.373 7.373 0 0 0-1.45 2.388 8.228 8.228 0 0 0-.513 2.914v.053c0 1.103.192 2.125.569 3.04.377.914.901 1.709 1.558 2.362a7.052 7.052 0 0 0 2.33 1.53 7.6 7.6 0 0 0 2.882.545c1.308 0 2.451-.248 3.397-.738.532-.276 1.375-.972 1.837-1.368a.469.469 0 0 0 .07-.636l-1.471-1.97-.108.105c-.55.538-1.115.95-1.679 1.225-.557.272-1.227.41-1.993.41-.998 0-1.858-.297-2.557-.882-.657-.551-1.085-1.346-1.274-2.364h10.226l.016-.147a7.903 7.903 0 0 0 .054-.925 9.994 9.994 0 0 0-.431-2.944 7.422 7.422 0 0 0-1.287-2.47zm-22.15 3.457c.194-.52.464-.979.803-1.362a3.869 3.869 0 0 1 1.22-.922 3.5 3.5 0 0 1 1.543-.344c.778 0 1.44.158 1.969.47a7.29 7.29 0 0 1 1.49 1.192l.118.12 1.926-1.998a.468.468 0 0 0-.024-.672c-.512-.458-1.46-1.27-2.082-1.586-.894-.454-2.027-.685-3.37-.685a7.336 7.336 0 0 0-5.32 2.225 7.425 7.425 0 0 0-1.544 2.401 7.732 7.732 0 0 0-.554 2.904v.054c0 1.013.186 1.986.554 2.891a7.29 7.29 0 0 0 1.545 2.375 7.34 7.34 0 0 0 2.341 1.597c.9.39 1.892.587 2.951.587.696 0 1.333-.068 1.892-.204a7.261 7.261 0 0 0 1.544-.56c.466-.235.904-.52 1.301-.848.255-.21.509-.451.799-.758l.094-.1-1.723-2.37-.12-.122-.117.117c-.499.503-1.035.921-1.593 1.241-.546.313-1.192.472-1.918.472-.59 0-1.138-.115-1.625-.344a3.996 3.996 0 0 1-1.273-.937 4.211 4.211 0 0 1-.827-1.386 4.911 4.911 0 0 1-.295-1.705v-.053c0-.6.1-1.168.295-1.69m89.205.565c.155-.979.527-1.787 1.108-2.404.61-.648 1.394-.976 2.33-.976.504 0 .958.09 1.35.266.39.176.733.427 1.017.746.286.323.516.706.684 1.138.15.385.255.798.313 1.23h-6.802zm8.61-4.022a6.224 6.224 0 0 0-2.149-1.7c-.857-.418-1.866-.63-2.997-.63-1.024 0-1.973.198-2.821.589-.846.39-1.59.933-2.21 1.613a7.375 7.375 0 0 0-1.45 2.388 8.228 8.228 0 0 0-.513 2.914v.053c0 1.103.191 2.125.569 3.04.377.914.901 1.709 1.558 2.362a7.051 7.051 0 0 0 2.33 1.53c.89.362 1.86.545 2.882.545 1.308 0 2.451-.248 3.398-.738.531-.276 1.374-.972 1.837-1.368a.469.469 0 0 0 .07-.636l-1.472-1.97-.108.105c-.55.538-1.115.95-1.679 1.225-.557.272-1.227.41-1.993.41-.998 0-1.858-.297-2.557-.882-.657-.551-1.085-1.346-1.274-2.364h10.226l.016-.147c.018-.163.03-.32.04-.475a9.994 9.994 0 0 0-.417-3.394 7.423 7.423 0 0 0-1.287-2.47z"/><path fill="#4A4A4A" d="M121.757 9.638h-4.15a.463.463 0 0 0-.339.148l-5.426 5.844V4.649h-3.53v19.41h3.068a.464.464 0 0 0 .462-.467V19.93l1.775-1.862 4.145 5.99h4.105l-5.847-8.5 5.737-5.92z"/></g></svg>